#!OML:ASF X:\für Bonn\!DataBase\2005_08_11_Bastian_Final\c3d\Bastian.ASF
:FULLY-SPECIFIED
:DEGREES
36
root 0.492238 18.078 1.46201 167.02 -1.50152 -174.168
lowerback 8.60159 -1.27037 5.15155
upperback 2.81428 -1.48713 -0.876662
thorax -2.04301 -0.826631 -3.65122
lowerneck 6.59559 -6.76798 -3.8103
upperneck 6.91251 -8.99095 11.701
head 1.67019 -4.13902 4.14488
rclavicle -4.17448e-015 -3.18055e-014
rhumerus 67.7701 -7.81703 -0.688838
rradius 39.3472
rwrist -68.9808
rhand -48.1575 -8.04202
rfingers 7.12502
rthumb -20.8198 -36.945
lclavicle -4.17448e-015 -3.18055e-014
lhumerus -285.592 -11.11 358.93
lradius 37.5739
lwrist 25.7978
lhand -48.3457 12.5609
lfingers 7.12502
lthumb -21.0006 41.4439
rfemur 6.89799 -0.235212 25.1711
rtibia 32.7344
rfoot -7.41773 -1.7175
rtoes -0.834722
lfemur 9.85269 1.33472 -11.1676
ltibia 27.6671
lfoot -4.01537 -4.46262
ltoes -25.7556
37
root 0.505939 18.1044 1.40145 167.006 -1.60796 -174.183
lowerback 8.3988 -1.36527 5.0698
upperback 2.56701 -1.60072 -0.899901
thorax -2.19914 -0.881347 -3.61809
lowerneck 7.12696 -6.75989 -3.68187
upperneck 6.8599 -8.90567 11.2562
head 1.7421 -4.11684 4.4336
rclavicle 1.10822e-014 -2.22639e-014
rhumerus 63.732 -9.68697 9.91962
rradius 40.3582
rwrist -74.7685
rhand -49.4153 -9.14372
rfingers 7.12502
rthumb -22.0278 -37.9093
lclavicle 1.10822e-014 -2.22639e-014
lhumerus -287.176 -8.47661 355.006
lradius 37.9821
lwrist 29.2492
lhand -48.5943 12.2523
lfingers 7.12502
lthumb -21.2394 41.1086
rfemur 7.01595 -0.264679 25.1219
rtibia 32.8003
rfoot -6.8913 -1.52446
rtoes -0.533552
lfemur 9.9688 1.30913 -11.0659
ltibia 27.6389
lfoot -3.37545 -4.63126
ltoes -25.9964
38
root 0.518758 18.132 1.34313 167.004 -1.70437 -174.206
lowerback 8.22876 -1.46878 4.97435
upperback 2.34168 -1.72929 -0.911038
thorax -2.35073 -0.944389 -3.56274
lowerneck 7.67397 -6.72271 -3.6562
upperneck 6.86249 -8.82348 11.1938
head 1.63444 -4.08082 4.42837
rclavicle -4.96962e-015 -2.38542e-015
rhumerus 58.517 -10.3645 21.7307
rradius 41.7096
rwrist -81.367
rhand -50.5199 -10.0731
rfingers 7.12502
rthumb -23.088 -38.7099
lclavicle -4.96962e-015 -2.38542e-015
lhumerus -289.185 -6.10361 350.917
lradius 38.3883
lwrist 33.044
lhand -49.0878 11.6376
lfingers 7.12502
lthumb -21.7133 40.4398
rfemur 7.1163 -0.31809 25.0514
rtibia 32.8362
rfoot -6.34714 -1.29883
rtoes -0.227399
lfemur 10.077 1.24176 -10.9996
ltibia 27.5993
lfoot -2.73457 -4.73526
ltoes -26.3114
39
root 0.532494 18.1583 1.28877 167.008 -1.78082 -174.209
lowerback 8.12005 -1.55684 4.88251
upperback 2.12721 -1.83694 -0.911973
thorax -2.52205 -0.998328 -3.49989
lowerneck 8.33627 -6.68498 -3.70946
upperneck 6.73328 -8.74144 11.2026
head 1.47131 -4.0553 4.46997
rclavicle -1.83379e-014 -1.03368e-014
rhumerus 53.1128 -9.78987 32.5556
rradius 42.898
rwrist -86.7511
rhand -50.9916 -11.0927
rfingers 7.12502
rthumb -23.5405 -39.6721
lclavicle -1.83379e-014 -1.03368e-014
lhumerus -291.554 -4.07464 346.41
lradius 38.8084
lwrist 36.8668
lhand -49.8208 11.1492
lfingers 7.12502
lthumb -22.417 39.8684
rfemur 7.19563 -0.336841 25.0254
rtibia 32.861
rfoot -5.83353 -1.13039
rtoes -0.0220595
lfemur 10.175 1.20076 -10.8981
ltibia 27.5443
lfoot -2.08502 -4.82235
ltoes -26.4605
40
root 0.547419 18.1852 1.23828 167.026 -1.82695 -174.21
lowerback 8.04324 -1.6504 4.765
upperback 1.94297 -1.95631 -0.895673
thorax -2.67884 -1.05824 -3.40294
lowerneck 9.00251 -6.61554 -3.74929
upperneck 6.52463 -8.61605 11.2156
head 1.27699 -4.01277 4.51197
rclavicle -2.23633e-014 1.59028e-015
rhumerus 48.0809 -8.1865 41.9536
rradius 43.7664
rwrist -90.6138
rhand -50.9197 -12.1858
rfingers 7.12502
rthumb -23.4715 -40.774
lclavicle -2.23633e-014 1.59028e-015
lhumerus -294.318 -2.4798 341.342
lradius 39.1417
lwrist 40.4592
lhand -50.7678 11.0959
lfingers 7.12502
lthumb -23.3259 39.7027
rfemur 7.24325 -0.342051 25.0079
rtibia 32.8757
rfoot -5.30862 -0.935915
rtoes 0.209868
lfemur 10.2457 1.17816 -10.7873
ltibia 27.4894
lfoot -1.43202 -4.911
ltoes -26.5956
41
root 0.562348 18.2121 1.19208 167.035 -1.86389 -174.235
lowerback 8.02675 -1.73783 4.61928
upperback 1.77835 -2.07078 -0.901138
thorax -2.84743 -1.11622 -3.31188
lowerneck 9.63393 -6.55845 -3.70827
upperneck 6.29896 -8.4993 11.2127
head 1.0794 -3.97218 4.53179
rclavicle -5.86415e-015 1.66979e-014
rhumerus 43.4531 -5.47904 50.3967
rradius 44.3608
rwrist -93.4606
rhand -50.4701 -13.3364
rfingers 7.12502
rthumb -23.0403 -41.9792
lclavicle -5.86415e-015 1.66979e-014
lhumerus -297.564 -1.47456 335.212
lradius 39.5727
lwrist 43.998
lhand -51.8869 11.7209
lfingers 7.12502
lthumb -24.3991 40.1874
rfemur 7.2775 -0.355497 24.9677
rtibia 32.8975
rfoot -4.74096 -0.738067
rtoes 0.222365
lfemur 10.3222 1.15548 -10.7011
ltibia 27.433
lfoot -0.789073 -4.98759
ltoes -26.5878
42
root 0.576524 18.2375 1.14834 167.079 -1.89189 -174.228
lowerback 7.97554 -1.82571 4.47816
upperback 1.63197 -2.18778 -0.862136
thorax -2.97572 -1.17431 -3.1779
lowerneck 10.2865 -6.48464 -3.69914
upperneck 5.99662 -8.36442 11.192
head 0.852124 -3.92959 4.55363
rclavicle 7.7526e-015 -2.46493e-014
rhumerus 39.265 -2.03529 57.5763
rradius 44.8118
rwrist -95.1785
rhand -49.7869 -14.3723
rfingers 7.12502
rthumb -22.3846 -43.0954
lclavicle 7.7526e-015 -2.46493e-014
lhumerus -301.113 -1.27995 328.321
lradius 39.8572
lwrist 47.1758
lhand -53.0002 13.1124
lfingers 7.12502
lthumb -25.466 41.4309
rfemur 7.25996 -0.356351 24.973
rtibia 32.9274
rfoot -4.15741 -0.571491
rtoes 0.31313
lfemur 10.3457 1.15353 -10.5791
ltibia 27.379
lfoot -0.177734 -5.06039
ltoes -26.7328
43
root 0.589692 18.2609 1.10705 167.111 -1.87717 -174.241
lowerback 7.93617 -1.89899 4.34281
upperback 1.51845 -2.28831 -0.848571
thorax -3.07538 -1.22387 -3.07561
lowerneck 10.9475 -6.41102 -3.65344
upperneck 5.64877 -8.22278 11.2055
head 0.608064 -3.88415 4.58264
rclavicle 3.06128e-014 -1.74931e-014
rhumerus 35.4414 1.71532 63.1043
rradius 45.0768
rwrist -95.7142
rhand -49.0186 -15.3744
rfingers 7.12502
rthumb -21.6469 -44.1843
lclavicle 3.06128e-014 -1.74931e-014
lhumerus -304.787 -1.993 321.086
lradius 39.9364
lwrist 49.6071
lhand -53.8796 15.2843
lfingers 7.12502
lthumb -26.3081 43.4799
rfemur 7.24002 -0.38246 24.9313
rtibia 32.9684
rfoot -3.557 -0.312164
rtoes 0.318317
lfemur 10.3978 1.13254 -10.4944
ltibia 27.333
lfoot 0.433867 -5.0465
ltoes -26.5909
44
root 0.601275 18.2848 1.06873 167.164 -1.85773 -174.283
lowerback 7.88261 -1.97631 4.16927
upperback 1.41987 -2.39889 -0.820159
thorax -3.14969 -1.27737 -2.93597
lowerneck 11.6137 -6.32251 -3.62205
upperneck 5.27121 -8.0654 11.1777
head 0.350702 -3.83431 4.6008
rclavicle 7.35503e-015 -1.98785e-014
rhumerus 31.9384 5.48513 67.2794
rradius 45.2313
rwrist -95.8348
rhand -48.5593 -16.0941
rfingers 7.12502
rthumb -21.2057 -44.9542
lclavicle 7.35503e-015 -1.98785e-014
lhumerus -308.426 -3.79092 313.681
lradius 39.797
lwrist 51.5777
lhand -54.5043 17.7568
lfingers 7.12502
lthumb -26.9059 45.8617
rfemur 7.18324 -0.384999 24.8595
rtibia 33.0219
rfoot -3.0002 -0.0762045
rtoes 0.438947
lfemur 10.4088 1.12218 -10.4548
ltibia 27.291
lfoot 1.04621 -5.02725
ltoes -26.5768
45
root 0.610941 18.3067 1.03266 167.223 -1.79952 -174.283
lowerback 7.79226 -2.04065 4.09003
upperback 1.36785 -2.48973 -0.81006
thorax -3.15735 -1.32093 -2.87273
lowerneck 12.3615 -6.23963 -3.51262
upperneck 4.73238 -7.91241 11.5168
head 0.0088403 -3.7943 4.29208
rclavicle -9.54166e-015 2.14687e-014
rhumerus 28.5707 9.1134 70.2053
rradius 45.4335
rwrist -96.2112
rhand -48.8227 -16.6472
rfingers 7.12502
rthumb -21.4588 -45.4787
lclavicle -9.54166e-015 2.14687e-014
lhumerus -311.85 -6.61913 306.295
lradius 39.551
lwrist 53.2448
lhand -54.9392 20.2599
lfingers 7.12502
lthumb -27.322 48.3
rfemur 7.10844 -0.346362 24.835
rtibia 33.0907
rfoot -2.49046 0.133546
rtoes 0.608659
lfemur 10.4091 1.11019 -10.3811
ltibia 27.247
lfoot 1.64897 -4.96976
ltoes -26.5184
